<mxfile host="Electron" agent="Mozilla/5.0 (Windows NT 10.0; Win64; x64) AppleWebKit/537.36 (KHTML, like Gecko) draw.io/25.0.2 Chrome/128.0.6613.186 Electron/32.2.5 Safari/537.36" version="25.0.2" pages="3">
  <diagram id="JLbRm1B3leIBpFiZy82N" name="Página-1">
    <mxGraphModel dx="1313" dy="786" grid="1" gridSize="10" guides="1" tooltips="1" connect="1" arrows="1" fold="1" page="1" pageScale="1" pageWidth="827" pageHeight="1169" math="0" shadow="0">
      <root>
        <mxCell id="0" />
        <mxCell id="1" parent="0" />
        <mxCell id="bmJf82muZMI-LVmewTOy-1" value="&lt;font style=&quot;font-size: 18px;&quot;&gt;início&lt;/font&gt;" style="rounded=1;whiteSpace=wrap;html=1;" vertex="1" parent="1">
          <mxGeometry x="340" y="40" width="120" height="60" as="geometry" />
        </mxCell>
        <mxCell id="bmJf82muZMI-LVmewTOy-13" style="edgeStyle=orthogonalEdgeStyle;rounded=0;orthogonalLoop=1;jettySize=auto;html=1;" edge="1" parent="1" source="bmJf82muZMI-LVmewTOy-8" target="bmJf82muZMI-LVmewTOy-12">
          <mxGeometry relative="1" as="geometry">
            <Array as="points">
              <mxPoint x="400" y="280" />
              <mxPoint x="400" y="280" />
            </Array>
          </mxGeometry>
        </mxCell>
        <mxCell id="bmJf82muZMI-LVmewTOy-8" value="&lt;font style=&quot;font-size: 17px;&quot;&gt;n1, n2, n3&lt;/font&gt;" style="html=1;strokeWidth=2;shape=manualInput;whiteSpace=wrap;rounded=1;size=26;arcSize=11;" vertex="1" parent="1">
          <mxGeometry x="350" y="160" width="100" height="60" as="geometry" />
        </mxCell>
        <mxCell id="bmJf82muZMI-LVmewTOy-9" style="edgeStyle=orthogonalEdgeStyle;rounded=0;orthogonalLoop=1;jettySize=auto;html=1;entryX=0.5;entryY=0.167;entryDx=0;entryDy=0;entryPerimeter=0;" edge="1" parent="1" source="bmJf82muZMI-LVmewTOy-1" target="bmJf82muZMI-LVmewTOy-8">
          <mxGeometry relative="1" as="geometry" />
        </mxCell>
        <mxCell id="bmJf82muZMI-LVmewTOy-16" style="edgeStyle=orthogonalEdgeStyle;rounded=0;orthogonalLoop=1;jettySize=auto;html=1;exitX=0.5;exitY=1;exitDx=0;exitDy=0;entryX=0.5;entryY=0;entryDx=0;entryDy=0;" edge="1" parent="1" source="bmJf82muZMI-LVmewTOy-12" target="bmJf82muZMI-LVmewTOy-15">
          <mxGeometry relative="1" as="geometry" />
        </mxCell>
        <mxCell id="bmJf82muZMI-LVmewTOy-12" value="&lt;font style=&quot;font-size: 14px;&quot;&gt;média=(n1+n2+ n3) / 3&lt;/font&gt;" style="rounded=0;whiteSpace=wrap;html=1;" vertex="1" parent="1">
          <mxGeometry x="335" y="310" width="130" height="60" as="geometry" />
        </mxCell>
        <mxCell id="bmJf82muZMI-LVmewTOy-34" style="edgeStyle=orthogonalEdgeStyle;rounded=0;orthogonalLoop=1;jettySize=auto;html=1;" edge="1" parent="1" source="bmJf82muZMI-LVmewTOy-15" target="bmJf82muZMI-LVmewTOy-25">
          <mxGeometry relative="1" as="geometry" />
        </mxCell>
        <mxCell id="bmJf82muZMI-LVmewTOy-15" value="&lt;font style=&quot;font-size: 15px;&quot;&gt;média &amp;gt;=5&lt;/font&gt;&lt;div&gt;&lt;font style=&quot;font-size: 15px;&quot;&gt;e&lt;/font&gt;&lt;/div&gt;&lt;div&gt;&lt;font style=&quot;font-size: 15px;&quot;&gt;média&amp;lt;=4&amp;nbsp;&lt;/font&gt;&lt;/div&gt;" style="rhombus;whiteSpace=wrap;html=1;" vertex="1" parent="1">
          <mxGeometry x="333.75" y="440" width="132.5" height="140" as="geometry" />
        </mxCell>
        <mxCell id="bmJf82muZMI-LVmewTOy-41" style="edgeStyle=orthogonalEdgeStyle;rounded=0;orthogonalLoop=1;jettySize=auto;html=1;" edge="1" parent="1" source="bmJf82muZMI-LVmewTOy-18" target="bmJf82muZMI-LVmewTOy-42">
          <mxGeometry relative="1" as="geometry">
            <mxPoint x="210" y="1030" as="targetPoint" />
          </mxGeometry>
        </mxCell>
        <mxCell id="bmJf82muZMI-LVmewTOy-18" value="&quot;Reprovado&quot;" style="shape=document;whiteSpace=wrap;html=1;boundedLbl=1;" vertex="1" parent="1">
          <mxGeometry x="90" y="480" width="120" height="80" as="geometry" />
        </mxCell>
        <mxCell id="bmJf82muZMI-LVmewTOy-19" style="edgeStyle=orthogonalEdgeStyle;rounded=0;orthogonalLoop=1;jettySize=auto;html=1;entryX=1.027;entryY=0.378;entryDx=0;entryDy=0;entryPerimeter=0;" edge="1" parent="1" source="bmJf82muZMI-LVmewTOy-15" target="bmJf82muZMI-LVmewTOy-18">
          <mxGeometry relative="1" as="geometry" />
        </mxCell>
        <mxCell id="bmJf82muZMI-LVmewTOy-22" value="SIM" style="text;html=1;align=center;verticalAlign=middle;resizable=0;points=[];autosize=1;strokeColor=none;fillColor=none;" vertex="1" parent="1">
          <mxGeometry x="250" y="478" width="40" height="30" as="geometry" />
        </mxCell>
        <mxCell id="bmJf82muZMI-LVmewTOy-30" value="" style="edgeStyle=orthogonalEdgeStyle;rounded=0;orthogonalLoop=1;jettySize=auto;html=1;" edge="1" parent="1" source="bmJf82muZMI-LVmewTOy-25" target="bmJf82muZMI-LVmewTOy-29">
          <mxGeometry relative="1" as="geometry" />
        </mxCell>
        <mxCell id="bmJf82muZMI-LVmewTOy-38" style="edgeStyle=orthogonalEdgeStyle;rounded=0;orthogonalLoop=1;jettySize=auto;html=1;entryX=0.5;entryY=0;entryDx=0;entryDy=0;" edge="1" parent="1" source="bmJf82muZMI-LVmewTOy-25" target="bmJf82muZMI-LVmewTOy-33">
          <mxGeometry relative="1" as="geometry" />
        </mxCell>
        <mxCell id="bmJf82muZMI-LVmewTOy-25" value="&lt;font style=&quot;font-size: 16px;&quot;&gt;média &amp;gt; 4&lt;/font&gt;&lt;div&gt;&lt;font style=&quot;font-size: 16px;&quot;&gt;e&amp;nbsp;&lt;/font&gt;&lt;/div&gt;&lt;div&gt;&lt;font style=&quot;font-size: 16px;&quot;&gt;média &amp;lt; 7&lt;/font&gt;&lt;/div&gt;" style="rhombus;whiteSpace=wrap;html=1;" vertex="1" parent="1">
          <mxGeometry x="500" y="650" width="230" height="130" as="geometry" />
        </mxCell>
        <mxCell id="bmJf82muZMI-LVmewTOy-26" value="NÃO" style="text;html=1;align=center;verticalAlign=middle;resizable=0;points=[];autosize=1;strokeColor=none;fillColor=none;" vertex="1" parent="1">
          <mxGeometry x="515" y="468" width="50" height="30" as="geometry" />
        </mxCell>
        <mxCell id="bmJf82muZMI-LVmewTOy-43" style="edgeStyle=orthogonalEdgeStyle;rounded=0;orthogonalLoop=1;jettySize=auto;html=1;entryX=0.75;entryY=0;entryDx=0;entryDy=0;" edge="1" parent="1" source="bmJf82muZMI-LVmewTOy-29" target="bmJf82muZMI-LVmewTOy-42">
          <mxGeometry relative="1" as="geometry" />
        </mxCell>
        <mxCell id="bmJf82muZMI-LVmewTOy-29" value="&quot;recuperação&quot;" style="shape=document;whiteSpace=wrap;html=1;boundedLbl=1;" vertex="1" parent="1">
          <mxGeometry x="245" y="675" width="120" height="80" as="geometry" />
        </mxCell>
        <mxCell id="bmJf82muZMI-LVmewTOy-31" value="SIM" style="text;html=1;align=center;verticalAlign=middle;resizable=0;points=[];autosize=1;strokeColor=none;fillColor=none;" vertex="1" parent="1">
          <mxGeometry x="413.5" y="690" width="40" height="30" as="geometry" />
        </mxCell>
        <mxCell id="bmJf82muZMI-LVmewTOy-36" value="" style="edgeStyle=orthogonalEdgeStyle;rounded=0;orthogonalLoop=1;jettySize=auto;html=1;" edge="1" parent="1" source="bmJf82muZMI-LVmewTOy-33" target="bmJf82muZMI-LVmewTOy-35">
          <mxGeometry relative="1" as="geometry" />
        </mxCell>
        <mxCell id="bmJf82muZMI-LVmewTOy-40" value="" style="edgeStyle=orthogonalEdgeStyle;rounded=0;orthogonalLoop=1;jettySize=auto;html=1;" edge="1" parent="1" source="bmJf82muZMI-LVmewTOy-33" target="bmJf82muZMI-LVmewTOy-39">
          <mxGeometry relative="1" as="geometry" />
        </mxCell>
        <mxCell id="bmJf82muZMI-LVmewTOy-33" value="média &amp;gt;=7&lt;div&gt;e&amp;nbsp;&lt;/div&gt;&lt;div&gt;média &amp;lt;=10&lt;/div&gt;" style="rhombus;whiteSpace=wrap;html=1;" vertex="1" parent="1">
          <mxGeometry x="540" y="880" width="120" height="100" as="geometry" />
        </mxCell>
        <mxCell id="bmJf82muZMI-LVmewTOy-44" style="edgeStyle=orthogonalEdgeStyle;rounded=0;orthogonalLoop=1;jettySize=auto;html=1;entryX=1;entryY=0;entryDx=0;entryDy=0;" edge="1" parent="1" source="bmJf82muZMI-LVmewTOy-35" target="bmJf82muZMI-LVmewTOy-42">
          <mxGeometry relative="1" as="geometry" />
        </mxCell>
        <mxCell id="bmJf82muZMI-LVmewTOy-35" value="&quot;Aprovado&quot;" style="shape=document;whiteSpace=wrap;html=1;boundedLbl=1;" vertex="1" parent="1">
          <mxGeometry x="335" y="890" width="120" height="80" as="geometry" />
        </mxCell>
        <mxCell id="bmJf82muZMI-LVmewTOy-49" style="edgeStyle=orthogonalEdgeStyle;rounded=0;orthogonalLoop=1;jettySize=auto;html=1;entryX=1;entryY=0.75;entryDx=0;entryDy=0;" edge="1" parent="1" source="bmJf82muZMI-LVmewTOy-39" target="bmJf82muZMI-LVmewTOy-42">
          <mxGeometry relative="1" as="geometry">
            <mxPoint x="810" y="1110.0000000000002" as="targetPoint" />
            <Array as="points">
              <mxPoint x="820" y="1075" />
            </Array>
          </mxGeometry>
        </mxCell>
        <mxCell id="bmJf82muZMI-LVmewTOy-39" value="&quot;erro de digitação&quot;" style="shape=document;whiteSpace=wrap;html=1;boundedLbl=1;" vertex="1" parent="1">
          <mxGeometry x="750" y="890" width="120" height="80" as="geometry" />
        </mxCell>
        <mxCell id="bmJf82muZMI-LVmewTOy-42" value="FIM" style="rounded=1;whiteSpace=wrap;html=1;" vertex="1" parent="1">
          <mxGeometry x="210" y="1030" width="120" height="60" as="geometry" />
        </mxCell>
      </root>
    </mxGraphModel>
  </diagram>
  <diagram id="27TO_p_n_cXaXLi440zW" name="Página-2">
    <mxGraphModel dx="1235" dy="740" grid="1" gridSize="10" guides="1" tooltips="1" connect="1" arrows="1" fold="1" page="1" pageScale="1" pageWidth="827" pageHeight="1169" math="0" shadow="0">
      <root>
        <mxCell id="0" />
        <mxCell id="1" parent="0" />
        <mxCell id="3cI5jN4FOwFIUnLQvYEp-2" style="edgeStyle=orthogonalEdgeStyle;rounded=0;orthogonalLoop=1;jettySize=auto;html=1;" edge="1" parent="1" source="3cI5jN4FOwFIUnLQvYEp-1">
          <mxGeometry relative="1" as="geometry">
            <mxPoint x="360" y="120" as="targetPoint" />
          </mxGeometry>
        </mxCell>
        <mxCell id="3cI5jN4FOwFIUnLQvYEp-1" value="&lt;font style=&quot;font-size: 21px;&quot;&gt;início&lt;/font&gt;" style="rounded=1;whiteSpace=wrap;html=1;" vertex="1" parent="1">
          <mxGeometry x="300" width="120" height="60" as="geometry" />
        </mxCell>
        <mxCell id="cQGeY9pY-udE82pXmEpx-2" style="edgeStyle=orthogonalEdgeStyle;rounded=0;orthogonalLoop=1;jettySize=auto;html=1;" edge="1" parent="1">
          <mxGeometry relative="1" as="geometry">
            <mxPoint x="360" y="240" as="targetPoint" />
            <mxPoint x="360" y="170" as="sourcePoint" />
          </mxGeometry>
        </mxCell>
        <mxCell id="cQGeY9pY-udE82pXmEpx-12" style="edgeStyle=orthogonalEdgeStyle;rounded=0;orthogonalLoop=1;jettySize=auto;html=1;entryX=0;entryY=0.25;entryDx=0;entryDy=0;" edge="1" parent="1" source="cQGeY9pY-udE82pXmEpx-3" target="cQGeY9pY-udE82pXmEpx-8">
          <mxGeometry relative="1" as="geometry" />
        </mxCell>
        <mxCell id="cQGeY9pY-udE82pXmEpx-21" style="edgeStyle=orthogonalEdgeStyle;rounded=0;orthogonalLoop=1;jettySize=auto;html=1;entryX=0.5;entryY=0;entryDx=0;entryDy=0;" edge="1" parent="1" source="cQGeY9pY-udE82pXmEpx-3" target="cQGeY9pY-udE82pXmEpx-19">
          <mxGeometry relative="1" as="geometry" />
        </mxCell>
        <mxCell id="cQGeY9pY-udE82pXmEpx-3" value="&lt;div&gt;&amp;nbsp; num !=0&lt;/div&gt;" style="rhombus;whiteSpace=wrap;html=1;" vertex="1" parent="1">
          <mxGeometry x="270" y="240" width="200" height="130" as="geometry" />
        </mxCell>
        <mxCell id="cQGeY9pY-udE82pXmEpx-20" style="edgeStyle=orthogonalEdgeStyle;rounded=0;orthogonalLoop=1;jettySize=auto;html=1;entryX=1;entryY=0.5;entryDx=0;entryDy=0;" edge="1" parent="1" source="cQGeY9pY-udE82pXmEpx-8" target="cQGeY9pY-udE82pXmEpx-18">
          <mxGeometry relative="1" as="geometry">
            <Array as="points">
              <mxPoint x="630" y="140" />
            </Array>
          </mxGeometry>
        </mxCell>
        <mxCell id="cQGeY9pY-udE82pXmEpx-8" value="&#39;O número precisa ser diferente de 0, volte" style="shape=document;whiteSpace=wrap;html=1;boundedLbl=1;" vertex="1" parent="1">
          <mxGeometry x="560" y="290" width="170" height="80" as="geometry" />
        </mxCell>
        <mxCell id="cQGeY9pY-udE82pXmEpx-9" value="NÃO" style="text;html=1;align=center;verticalAlign=middle;resizable=0;points=[];autosize=1;strokeColor=none;fillColor=none;" vertex="1" parent="1">
          <mxGeometry x="460" y="280" width="50" height="30" as="geometry" />
        </mxCell>
        <mxCell id="cQGeY9pY-udE82pXmEpx-13" value="Fim" style="rounded=1;whiteSpace=wrap;html=1;" vertex="1" parent="1">
          <mxGeometry x="180" y="640" width="120" height="60" as="geometry" />
        </mxCell>
        <mxCell id="cQGeY9pY-udE82pXmEpx-18" value="&lt;br&gt;&lt;span style=&quot;color: rgb(0, 0, 0); font-family: Helvetica; font-size: 12px; font-style: normal; font-variant-ligatures: normal; font-variant-caps: normal; font-weight: 400; letter-spacing: normal; orphans: 2; text-align: center; text-indent: 0px; text-transform: none; widows: 2; word-spacing: 0px; -webkit-text-stroke-width: 0px; white-space: normal; background-color: rgb(251, 251, 251); text-decoration-thickness: initial; text-decoration-style: initial; text-decoration-color: initial; display: inline !important; float: none;&quot;&gt;N= diferente de 0&lt;br&gt;&lt;/span&gt;&lt;div&gt;&lt;br/&gt;&lt;/div&gt;" style="html=1;strokeWidth=2;shape=manualInput;whiteSpace=wrap;rounded=1;size=26;arcSize=11;" vertex="1" parent="1">
          <mxGeometry x="300" y="110" width="100" height="60" as="geometry" />
        </mxCell>
        <mxCell id="cQGeY9pY-udE82pXmEpx-22" style="edgeStyle=orthogonalEdgeStyle;rounded=0;orthogonalLoop=1;jettySize=auto;html=1;" edge="1" parent="1" source="cQGeY9pY-udE82pXmEpx-19">
          <mxGeometry relative="1" as="geometry">
            <mxPoint x="90" y="480" as="targetPoint" />
          </mxGeometry>
        </mxCell>
        <mxCell id="cQGeY9pY-udE82pXmEpx-26" value="" style="edgeStyle=orthogonalEdgeStyle;rounded=0;orthogonalLoop=1;jettySize=auto;html=1;" edge="1" parent="1" source="cQGeY9pY-udE82pXmEpx-19" target="cQGeY9pY-udE82pXmEpx-25">
          <mxGeometry relative="1" as="geometry" />
        </mxCell>
        <mxCell id="cQGeY9pY-udE82pXmEpx-19" value="num &amp;gt; 0" style="rhombus;whiteSpace=wrap;html=1;" vertex="1" parent="1">
          <mxGeometry x="180" y="430" width="110" height="100" as="geometry" />
        </mxCell>
        <mxCell id="cQGeY9pY-udE82pXmEpx-28" style="edgeStyle=orthogonalEdgeStyle;rounded=0;orthogonalLoop=1;jettySize=auto;html=1;entryX=0;entryY=0.75;entryDx=0;entryDy=0;" edge="1" parent="1" source="cQGeY9pY-udE82pXmEpx-23" target="cQGeY9pY-udE82pXmEpx-13">
          <mxGeometry relative="1" as="geometry" />
        </mxCell>
        <mxCell id="cQGeY9pY-udE82pXmEpx-23" value="&quot;Positivo&quot;" style="shape=document;whiteSpace=wrap;html=1;boundedLbl=1;" vertex="1" parent="1">
          <mxGeometry y="470" width="120" height="80" as="geometry" />
        </mxCell>
        <mxCell id="cQGeY9pY-udE82pXmEpx-24" value="SIM" style="text;html=1;align=center;verticalAlign=middle;whiteSpace=wrap;rounded=0;" vertex="1" parent="1">
          <mxGeometry x="120" y="460" width="60" height="30" as="geometry" />
        </mxCell>
        <mxCell id="cQGeY9pY-udE82pXmEpx-25" value="&quot;Negativo&#39;" style="shape=document;whiteSpace=wrap;html=1;boundedLbl=1;" vertex="1" parent="1">
          <mxGeometry x="365" y="440" width="120" height="80" as="geometry" />
        </mxCell>
        <mxCell id="cQGeY9pY-udE82pXmEpx-27" value="NÃO" style="text;html=1;align=center;verticalAlign=middle;whiteSpace=wrap;rounded=0;" vertex="1" parent="1">
          <mxGeometry x="290" y="460" width="60" height="30" as="geometry" />
        </mxCell>
        <mxCell id="cQGeY9pY-udE82pXmEpx-29" style="edgeStyle=orthogonalEdgeStyle;rounded=0;orthogonalLoop=1;jettySize=auto;html=1;entryX=1.003;entryY=0.64;entryDx=0;entryDy=0;entryPerimeter=0;" edge="1" parent="1" source="cQGeY9pY-udE82pXmEpx-25" target="cQGeY9pY-udE82pXmEpx-13">
          <mxGeometry relative="1" as="geometry">
            <Array as="points">
              <mxPoint x="420" y="678" />
            </Array>
          </mxGeometry>
        </mxCell>
      </root>
    </mxGraphModel>
  </diagram>
  <diagram id="BnmMMwtP5G5yBr_CX0cg" name="Página-3">
    <mxGraphModel dx="1500" dy="899" grid="1" gridSize="10" guides="1" tooltips="1" connect="1" arrows="1" fold="1" page="1" pageScale="1" pageWidth="827" pageHeight="1169" math="0" shadow="0">
      <root>
        <mxCell id="0" />
        <mxCell id="1" parent="0" />
        <mxCell id="4mBNMcfrHLudCqMr0CtZ-5" style="edgeStyle=orthogonalEdgeStyle;rounded=0;orthogonalLoop=1;jettySize=auto;html=1;" edge="1" parent="1" source="4mBNMcfrHLudCqMr0CtZ-1">
          <mxGeometry relative="1" as="geometry">
            <mxPoint x="380" y="110" as="targetPoint" />
          </mxGeometry>
        </mxCell>
        <mxCell id="4mBNMcfrHLudCqMr0CtZ-1" value="INÍCIO" style="rounded=1;whiteSpace=wrap;html=1;" vertex="1" parent="1">
          <mxGeometry x="320" width="120" height="60" as="geometry" />
        </mxCell>
        <mxCell id="4mBNMcfrHLudCqMr0CtZ-6" style="edgeStyle=orthogonalEdgeStyle;rounded=0;orthogonalLoop=1;jettySize=auto;html=1;" edge="1" parent="1" source="4mBNMcfrHLudCqMr0CtZ-3">
          <mxGeometry relative="1" as="geometry">
            <mxPoint x="380" y="240" as="targetPoint" />
          </mxGeometry>
        </mxCell>
        <mxCell id="4mBNMcfrHLudCqMr0CtZ-3" value="n1, n2, n3" style="html=1;strokeWidth=2;shape=manualInput;whiteSpace=wrap;rounded=1;size=26;arcSize=11;" vertex="1" parent="1">
          <mxGeometry x="330" y="100" width="100" height="60" as="geometry" />
        </mxCell>
        <mxCell id="4mBNMcfrHLudCqMr0CtZ-11" value="" style="edgeStyle=orthogonalEdgeStyle;rounded=0;orthogonalLoop=1;jettySize=auto;html=1;" edge="1" parent="1" source="4mBNMcfrHLudCqMr0CtZ-8" target="4mBNMcfrHLudCqMr0CtZ-10">
          <mxGeometry relative="1" as="geometry" />
        </mxCell>
        <mxCell id="4mBNMcfrHLudCqMr0CtZ-18" style="edgeStyle=orthogonalEdgeStyle;rounded=0;orthogonalLoop=1;jettySize=auto;html=1;" edge="1" parent="1" source="4mBNMcfrHLudCqMr0CtZ-8">
          <mxGeometry relative="1" as="geometry">
            <mxPoint x="550" y="410" as="targetPoint" />
          </mxGeometry>
        </mxCell>
        <mxCell id="4mBNMcfrHLudCqMr0CtZ-8" value="n1 = n2 e n2 = n3 e n3=n1" style="rhombus;whiteSpace=wrap;html=1;" vertex="1" parent="1">
          <mxGeometry x="280" y="240" width="200" height="160" as="geometry" />
        </mxCell>
        <mxCell id="4mBNMcfrHLudCqMr0CtZ-10" value="&quot;Os números não podem ser igual, volte" style="shape=document;whiteSpace=wrap;html=1;boundedLbl=1;" vertex="1" parent="1">
          <mxGeometry x="40" y="280" width="120" height="80" as="geometry" />
        </mxCell>
        <mxCell id="4mBNMcfrHLudCqMr0CtZ-12" style="edgeStyle=orthogonalEdgeStyle;rounded=0;orthogonalLoop=1;jettySize=auto;html=1;entryX=-0.024;entryY=0.64;entryDx=0;entryDy=0;entryPerimeter=0;" edge="1" parent="1" source="4mBNMcfrHLudCqMr0CtZ-10" target="4mBNMcfrHLudCqMr0CtZ-3">
          <mxGeometry relative="1" as="geometry">
            <Array as="points">
              <mxPoint x="60" y="150" />
              <mxPoint x="328" y="150" />
            </Array>
          </mxGeometry>
        </mxCell>
        <mxCell id="4mBNMcfrHLudCqMr0CtZ-13" value="SIM" style="text;html=1;align=center;verticalAlign=middle;resizable=0;points=[];autosize=1;strokeColor=none;fillColor=none;" vertex="1" parent="1">
          <mxGeometry x="200" y="298" width="40" height="30" as="geometry" />
        </mxCell>
        <mxCell id="4mBNMcfrHLudCqMr0CtZ-16" value="NÃO" style="text;html=1;align=center;verticalAlign=middle;resizable=0;points=[];autosize=1;strokeColor=none;fillColor=none;" vertex="1" parent="1">
          <mxGeometry x="490" y="298" width="50" height="30" as="geometry" />
        </mxCell>
        <mxCell id="4mBNMcfrHLudCqMr0CtZ-20" value="" style="edgeStyle=orthogonalEdgeStyle;rounded=0;orthogonalLoop=1;jettySize=auto;html=1;" edge="1" parent="1" source="4mBNMcfrHLudCqMr0CtZ-17" target="4mBNMcfrHLudCqMr0CtZ-19">
          <mxGeometry relative="1" as="geometry" />
        </mxCell>
        <mxCell id="4mBNMcfrHLudCqMr0CtZ-27" style="edgeStyle=orthogonalEdgeStyle;rounded=0;orthogonalLoop=1;jettySize=auto;html=1;entryX=0.5;entryY=0;entryDx=0;entryDy=0;" edge="1" parent="1" source="4mBNMcfrHLudCqMr0CtZ-17" target="4mBNMcfrHLudCqMr0CtZ-24">
          <mxGeometry relative="1" as="geometry" />
        </mxCell>
        <mxCell id="4mBNMcfrHLudCqMr0CtZ-17" value="N1 &amp;gt; N2&lt;div&gt;E&amp;nbsp;&lt;/div&gt;&lt;div&gt;N1 &amp;gt; N3&lt;/div&gt;" style="rhombus;whiteSpace=wrap;html=1;" vertex="1" parent="1">
          <mxGeometry x="480" y="410" width="140" height="160" as="geometry" />
        </mxCell>
        <mxCell id="4mBNMcfrHLudCqMr0CtZ-44" style="edgeStyle=orthogonalEdgeStyle;rounded=0;orthogonalLoop=1;jettySize=auto;html=1;entryX=0.5;entryY=0;entryDx=0;entryDy=0;" edge="1" parent="1" source="4mBNMcfrHLudCqMr0CtZ-19" target="4mBNMcfrHLudCqMr0CtZ-39">
          <mxGeometry relative="1" as="geometry" />
        </mxCell>
        <mxCell id="4mBNMcfrHLudCqMr0CtZ-19" value="&quot;É o maior" style="shape=document;whiteSpace=wrap;html=1;boundedLbl=1;" vertex="1" parent="1">
          <mxGeometry x="270" y="450" width="120" height="80" as="geometry" />
        </mxCell>
        <mxCell id="4mBNMcfrHLudCqMr0CtZ-21" value="SIM" style="text;html=1;align=center;verticalAlign=middle;whiteSpace=wrap;rounded=0;" vertex="1" parent="1">
          <mxGeometry x="414" y="470" width="60" height="30" as="geometry" />
        </mxCell>
        <mxCell id="4mBNMcfrHLudCqMr0CtZ-29" value="" style="edgeStyle=orthogonalEdgeStyle;rounded=0;orthogonalLoop=1;jettySize=auto;html=1;" edge="1" parent="1" source="4mBNMcfrHLudCqMr0CtZ-24" target="4mBNMcfrHLudCqMr0CtZ-28">
          <mxGeometry relative="1" as="geometry" />
        </mxCell>
        <mxCell id="4mBNMcfrHLudCqMr0CtZ-33" value="" style="edgeStyle=orthogonalEdgeStyle;rounded=0;orthogonalLoop=1;jettySize=auto;html=1;" edge="1" parent="1" source="4mBNMcfrHLudCqMr0CtZ-24" target="4mBNMcfrHLudCqMr0CtZ-32">
          <mxGeometry relative="1" as="geometry" />
        </mxCell>
        <mxCell id="4mBNMcfrHLudCqMr0CtZ-24" value="N2 &amp;gt; N1&lt;div&gt;E&amp;nbsp;&lt;/div&gt;&lt;div&gt;N2 &amp;gt; N3&lt;/div&gt;" style="rhombus;whiteSpace=wrap;html=1;" vertex="1" parent="1">
          <mxGeometry x="730" y="540" width="150" height="150" as="geometry" />
        </mxCell>
        <mxCell id="4mBNMcfrHLudCqMr0CtZ-26" value="NÃO" style="text;html=1;align=center;verticalAlign=middle;whiteSpace=wrap;rounded=0;" vertex="1" parent="1">
          <mxGeometry x="660" y="460" width="60" height="30" as="geometry" />
        </mxCell>
        <mxCell id="4mBNMcfrHLudCqMr0CtZ-45" style="edgeStyle=orthogonalEdgeStyle;rounded=0;orthogonalLoop=1;jettySize=auto;html=1;entryX=0.75;entryY=0;entryDx=0;entryDy=0;" edge="1" parent="1" source="4mBNMcfrHLudCqMr0CtZ-28" target="4mBNMcfrHLudCqMr0CtZ-39">
          <mxGeometry relative="1" as="geometry" />
        </mxCell>
        <mxCell id="4mBNMcfrHLudCqMr0CtZ-28" value="&quot;É o maior&quot;" style="shape=document;whiteSpace=wrap;html=1;boundedLbl=1;" vertex="1" parent="1">
          <mxGeometry x="515" y="575" width="120" height="80" as="geometry" />
        </mxCell>
        <mxCell id="4mBNMcfrHLudCqMr0CtZ-30" value="SIM" style="text;html=1;align=center;verticalAlign=middle;whiteSpace=wrap;rounded=0;" vertex="1" parent="1">
          <mxGeometry x="670" y="584" width="60" height="30" as="geometry" />
        </mxCell>
        <mxCell id="4mBNMcfrHLudCqMr0CtZ-37" value="" style="edgeStyle=orthogonalEdgeStyle;rounded=0;orthogonalLoop=1;jettySize=auto;html=1;" edge="1" parent="1" source="4mBNMcfrHLudCqMr0CtZ-32" target="4mBNMcfrHLudCqMr0CtZ-36">
          <mxGeometry relative="1" as="geometry" />
        </mxCell>
        <mxCell id="4mBNMcfrHLudCqMr0CtZ-32" value="N3 &amp;gt; N1&lt;div&gt;E&amp;nbsp;&lt;/div&gt;&lt;div&gt;N3 &amp;gt; N2&lt;/div&gt;" style="rhombus;whiteSpace=wrap;html=1;" vertex="1" parent="1">
          <mxGeometry x="940" y="740" width="150" height="150" as="geometry" />
        </mxCell>
        <mxCell id="4mBNMcfrHLudCqMr0CtZ-34" value="NÃO" style="text;html=1;align=center;verticalAlign=middle;whiteSpace=wrap;rounded=0;" vertex="1" parent="1">
          <mxGeometry x="910" y="590" width="60" height="30" as="geometry" />
        </mxCell>
        <mxCell id="4mBNMcfrHLudCqMr0CtZ-46" style="edgeStyle=orthogonalEdgeStyle;rounded=0;orthogonalLoop=1;jettySize=auto;html=1;entryX=1;entryY=0.5;entryDx=0;entryDy=0;" edge="1" parent="1" source="4mBNMcfrHLudCqMr0CtZ-36" target="4mBNMcfrHLudCqMr0CtZ-39">
          <mxGeometry relative="1" as="geometry" />
        </mxCell>
        <mxCell id="4mBNMcfrHLudCqMr0CtZ-36" value="&quot;É o maior&quot;" style="shape=document;whiteSpace=wrap;html=1;boundedLbl=1;" vertex="1" parent="1">
          <mxGeometry x="725" y="775" width="120" height="80" as="geometry" />
        </mxCell>
        <mxCell id="4mBNMcfrHLudCqMr0CtZ-38" value="SIM" style="text;html=1;align=center;verticalAlign=middle;whiteSpace=wrap;rounded=0;" vertex="1" parent="1">
          <mxGeometry x="870" y="790" width="60" height="30" as="geometry" />
        </mxCell>
        <mxCell id="4mBNMcfrHLudCqMr0CtZ-39" value="FIM" style="rounded=1;whiteSpace=wrap;html=1;" vertex="1" parent="1">
          <mxGeometry x="270" y="830" width="120" height="60" as="geometry" />
        </mxCell>
      </root>
    </mxGraphModel>
  </diagram>
</mxfile>
